HIERARCHY
ROOT Hips
{
	OFFSET 0.00000 0.00000 0.00000
	CHANNELS 6 Xposition Yposition Zposition Zrotation Yrotation Xrotation 
	JOINT LHipJoint
	{
		OFFSET 0 0 0
		CHANNELS 3 Zrotation Yrotation Xrotation
		JOINT LeftHip
		{
			OFFSET 1.41496 -1.84582 0.78394
			CHANNELS 3 Zrotation Yrotation Xrotation
			JOINT LeftKnee
			{
				OFFSET 2.58040 -7.08960 0.00000
				CHANNELS 3 Zrotation Yrotation Xrotation
				JOINT LeftAnkle
				{
					OFFSET 2.64719 -7.27309 0.00000
					CHANNELS 3 Zrotation Yrotation Xrotation
					JOINT LeftToe
					{
						OFFSET 0.20718 -0.56921 2.20259
						CHANNELS 3 Zrotation Yrotation Xrotation
						End Site
						{
							OFFSET 0.00000 -0.00000 1.14243
						}
					}
				}
			}
		}
	}
	JOINT RHipJoint
	{
		OFFSET 0 0 0
		CHANNELS 3 Zrotation Yrotation Xrotation
		JOINT RightHip
		{
			OFFSET -1.40551 -1.84582 0.78394
			CHANNELS 3 Zrotation Yrotation Xrotation
			JOINT RightKnee
			{
				OFFSET -2.56572 -7.04926 0.00000
				CHANNELS 3 Zrotation Yrotation Xrotation
				JOINT RightAnkle
				{
					OFFSET -2.57974 -7.08778 0.00000
					CHANNELS 3 Zrotation Yrotation Xrotation
					JOINT RightToe
					{
						OFFSET -0.26704 -0.73369 2.20815
						CHANNELS 3 Zrotation Yrotation Xrotation
						End Site
						{
							OFFSET -0.00000 -0.00000 1.16246
						}
					}
				}
			}
		}
	}
	JOINT lowerback
	{
		OFFSET 0 0 0
		CHANNELS 3 Zrotation Yrotation Xrotation
		JOINT Chest
		{
			OFFSET -0.04690 2.05196 -0.07017
			CHANNELS 3 Zrotation Yrotation Xrotation
			JOINT Chest2
			{
				OFFSET 0.04085 2.05260 0.00800
				CHANNELS 3 Zrotation Yrotation Xrotation
				JOINT lowerneck
				{
					OFFSET 0 0 0
					CHANNELS 3 Zrotation Yrotation Xrotation
					JOINT Neck
					{
						OFFSET -0.03582 1.80995 0.19301
						CHANNELS 3 Zrotation Yrotation Xrotation
						JOINT Head
						{
							OFFSET 0.00952 1.80195 -0.36389
							CHANNELS 3 Zrotation Yrotation Xrotation
							End Site
							{
								OFFSET 0.00392 1.85062 -0.14494
							}
						}
					}
				}
				JOINT LeftCollar
				{
					OFFSET 0 0 0
					CHANNELS 3 Zrotation Yrotation Xrotation
					JOINT LeftShoulder
					{
						OFFSET 3.55224 1.39726 -0.13667
CHANNELS 3 Zrotation Xrotation Yrotation
						JOINT LeftElbow
						{
OFFSET 0 -5.145070 -0.000000
CHANNELS 3 Zrotation Xrotation Yrotation
							JOINT LeftWrist
							{
OFFSET 0 -3.506460 0.000000
CHANNELS 3 Zrotation Xrotation Yrotation
								JOINT lhand
								{
									OFFSET 0 0 0
CHANNELS 3 Zrotation Xrotation Yrotation
									JOINT LFingers
									{
OFFSET 0 -0.629970 0.000000
CHANNELS 3 Zrotation Xrotation Yrotation
										End Site
										{
OFFSET 0 -0.507900 0.000000
										}
									}
								}
								JOINT LThumb
								{
OFFSET 0 0.000000 0.000000
CHANNELS 3 Zrotation Xrotation Yrotation
									End Site
									{
OFFSET 0 -0.515650 0.515650
									}
								}
							}
						}
					}
				}
				JOINT RightCollar
				{
					OFFSET 0 0 0
					CHANNELS 3 Zrotation Yrotation Xrotation
					JOINT RightShoulder
					{
						OFFSET -3.06467 1.61290 -0.28813
CHANNELS 3 Zrotation Xrotation Yrotation
						JOINT RightElbow
						{
OFFSET 0 -5.232000 -0.000000
CHANNELS 3 Zrotation Xrotation Yrotation
							JOINT RightWrist
							{
OFFSET 0 -3.656410 0.000000
CHANNELS 3 Zrotation Xrotation Yrotation
								JOINT rhand
								{
									OFFSET 0 0 0
CHANNELS 3 Zrotation Xrotation Yrotation
									JOINT RFingers
									{
OFFSET 0 -0.656810 0.000000
CHANNELS 3 Zrotation Xrotation Yrotation
										End Site
										{
OFFSET 0 -0.529530 0.000000
										}
									}
								}
								JOINT RThumb
								{
OFFSET 0 0.000000 0.000000
CHANNELS 3 Zrotation Xrotation Yrotation
									End Site
									{
OFFSET 0 -0.537620 0.537620
									}
								}
							}
						}
					}
				}
			}
		}
	}
}
MOTION
Frames: 6
Frame Time: 0.008333333333333333
5.783913 11.835666 -8.975088 86.216840 -79.343108 -69.978012 0.000000 0.000000 0.000000 16.896364 15.645961 -70.598115 23.981336 19.609750 101.716057 -0.615112 -20.515549 -8.820101 0.190144 -2.808492 -7.745965 0.000000 0.000000 0.000000 1.305506 -3.224577 -88.202434 -29.576542 -17.641215 119.105381 -3.534897 -1.964237 -36.337386 -2.070473 9.011092 -25.830221 1.312427 0.594641 68.146258 -1.929690 -1.648902 10.870387 -1.846305 -1.525730 -9.254521 0.025388 36.484038 -11.924708 0.119069 58.910564 4.886768 147.585554 -42.078935 30.330675 0.000000 0.000000 0.000000 3.429972 10.037077 -12.991680 148.828595 -41.876579 107.815889 28.507957 -0.629261 -3.050454 0.000000 0.000000 0.000000 -7.125000 0.000000 0.000000 1.554135 33.447200 0.440179 0.000000 0.000000 0.000000 -54.721190 -20.147810 0.857324 -54.094715 -54.518585 -29.477618 -23.214838 -19.605796 -4.254569 0.000000 0.000000 0.000000 7.125000 0.000000 0.000000 2.582557 25.351219 1.228898
5.781110 11.820089 -8.870063 85.497767 -79.379075 -69.114421 0.000000 0.000000 0.000000 17.975778 14.836065 -69.868739 23.328715 19.723932 99.777981 -0.570685 -20.222360 -8.970021 0.192193 -2.823384 -7.787374 0.000000 0.000000 0.000000 0.671393 -3.471051 -88.359798 -29.590892 -17.633617 119.152686 -3.512108 -1.909340 -36.202377 -2.115348 9.101956 -26.115090 1.614895 0.382287 68.132590 -1.867294 -1.657360 10.882045 -1.896799 -1.528573 -9.239637 -0.189889 36.318740 -12.145781 -0.005889 58.814883 4.790619 147.496387 -42.318565 30.403647 0.000000 0.000000 0.000000 3.275546 10.153898 -13.059813 148.829917 -41.875505 107.816778 28.308733 -0.173262 -3.009274 0.000000 0.000000 0.000000 -7.125000 0.000000 0.000000 1.391523 33.394577 0.395808 0.000000 0.000000 0.000000 -55.172792 -20.433114 0.234618 -54.438540 -54.635458 -29.757784 -23.484553 -19.211628 -4.357156 0.000000 0.000000 0.000000 7.125000 0.000000 0.000000 2.379678 25.230226 1.138829
5.778217 11.804149 -8.764539 84.617378 -79.427824 -68.081068 0.000000 0.000000 0.000000 19.022997 14.012342 -69.169264 22.654025 19.825853 97.782735 -0.551141 -20.062899 -9.008234 0.197488 -2.861707 -7.893990 0.000000 0.000000 0.000000 0.080554 -3.762184 -88.539730 -29.606287 -17.625428 119.203511 -3.485413 -1.861300 -36.049795 -2.161314 9.194160 -26.404749 1.930759 0.150111 68.110317 -1.800857 -1.676467 10.892909 -1.943365 -1.535888 -9.225662 -0.399082 36.165066 -12.362834 -0.128282 58.728739 4.696832 147.406312 -42.552542 30.477345 0.000000 0.000000 0.000000 3.112811 10.275964 -13.124722 148.825495 -41.879108 107.813830 28.094954 0.300697 -2.970023 0.000000 0.000000 0.000000 -7.125000 0.000000 0.000000 1.217105 33.343862 0.347713 0.000000 0.000000 0.000000 -55.605753 -20.749523 -0.383571 -54.761501 -54.743931 -30.021240 -23.788188 -18.838281 -4.438060 0.000000 0.000000 0.000000 7.125000 0.000000 0.000000 2.151597 25.131143 1.034615
5.775241 11.787387 -8.658522 83.513864 -79.492468 -66.808533 0.000000 0.000000 0.000000 20.004876 13.198967 -68.527122 21.948452 19.898616 95.707817 -0.569011 -20.123114 -8.882338 0.213297 -2.971037 -8.198351 0.000000 0.000000 0.000000 -0.445314 -4.113894 -88.742947 -29.619997 -17.618102 119.248832 -3.457814 -1.810303 -35.890807 -2.203091 9.276590 -26.664758 2.252536 -0.099765 68.069604 -1.729163 -1.708921 10.902910 -1.980486 -1.548994 -9.212467 -0.592791 36.035171 -12.581777 -0.246404 58.658323 4.604482 147.315826 -42.763809 30.546278 0.000000 0.000000 0.000000 2.942683 10.410267 -13.189877 148.812901 -41.889446 107.805420 27.886926 0.803692 -2.956440 0.000000 0.000000 0.000000 -7.125000 0.000000 0.000000 1.047368 33.322470 0.299783 0.000000 0.000000 0.000000 -56.000931 -21.113572 -0.978966 -55.050251 -54.839384 -30.257180 -24.147224 -18.541649 -4.474199 0.000000 0.000000 0.000000 7.125000 0.000000 0.000000 1.881955 25.078181 0.907115
5.772239 11.770354 -8.552342 82.336883 -79.562344 -65.457242 0.000000 0.000000 0.000000 20.965241 12.389001 -67.903856 21.232709 19.961778 93.606664 -0.599200 -20.255661 -8.702407 0.232568 -3.103748 -8.567823 0.000000 0.000000 0.000000 -0.949789 -4.485549 -88.953832 -29.633154 -17.611060 119.292341 -3.429918 -1.758332 -35.729709 -2.243488 9.355802 -26.915003 2.576260 -0.355469 68.022820 -1.655738 -1.745770 10.912627 -2.014496 -1.564006 -9.199529 -0.781403 35.913106 -12.801342 -0.363120 58.593087 4.512605 147.225205 -42.967597 30.613644 0.000000 0.000000 0.000000 2.770121 10.548601 -13.255113 148.797615 -41.902002 107.795212 27.680790 1.316246 -2.951308 0.000000 0.000000 0.000000 -7.125000 0.000000 0.000000 0.879173 33.310733 0.251907 0.000000 0.000000 0.000000 -56.383668 -21.493307 -1.566856 -55.327737 -54.930551 -30.484061 -24.524502 -18.270277 -4.495598 0.000000 0.000000 0.000000 7.125000 0.000000 0.000000 1.598628 25.040404 0.771947
5.768985 11.752468 -8.445912 80.984226 -79.649155 -63.915804 0.000000 0.000000 0.000000 21.838421 11.636169 -67.346520 20.494404 19.983081 91.446467 -0.663056 -20.562929 -8.357101 0.271135 -3.341633 -9.232114 0.000000 0.000000 0.000000 -1.396878 -4.892983 -89.160949 -29.640783 -17.606982 119.317609 -3.408605 -1.659679 -35.585696 -2.270217 9.407426 -27.078566 2.886819 -0.607655 67.959403 -1.577288 -1.787343 10.920938 -2.035240 -1.581531 -9.187495 -0.943181 35.821090 -13.019299 -0.472499 58.541117 4.421583 147.138102 -43.143094 30.671914 0.000000 0.000000 0.000000 2.602533 10.697387 -13.328892 148.774139 -41.921241 107.779526 27.507719 1.812872 -2.977884 0.000000 0.000000 0.000000 -7.125000 0.000000 0.000000 0.737611 33.335679 0.210965 0.000000 0.000000 0.000000 -56.713140 -21.914096 -2.112989 -55.572862 -55.009608 -30.684811 -24.945750 -18.141667 -4.474135 0.000000 0.000000 0.000000 7.125000 0.000000 0.000000 1.281783 25.047299 0.618790
